<svg xmlns="http://www.w3.org/2000/svg" width="840" height="200" viewBox="0 0 840 200" font-family="'SFMono-Regular','Cascadia Mono',Consolas,'Courier New',monospace"><rect width="840" height="200" rx="8" fill="#131611" stroke="#2A2F24"/><text x="28" y="58" font-size="34" font-weight="700" fill="#A3B34C">27</text><text x="28" y="80" font-size="13" fill="#7C846B">repos</text><text x="228" y="58" font-size="34" font-weight="700" fill="#A3B34C">6</text><text x="228" y="80" font-size="13" fill="#7C846B">stars</text><text x="428" y="58" font-size="34" font-weight="700" fill="#A3B34C">0</text><text x="428" y="80" font-size="13" fill="#7C846B">followers</text><text x="628" y="58" font-size="34" font-weight="700" fill="#A3B34C">0</text><text x="628" y="80" font-size="13" fill="#7C846B">recent commits</text><text x="28" y="122" font-size="13" fill="#7C846B">projects by language</text><rect x="28.0" y="134" width="296.6" height="10" fill="#A3B34C"/><rect x="28" y="164" width="10" height="10" fill="#A3B34C"/><text x="44" y="173" font-size="12" fill="#D9DCCB">HTML 14</text><rect x="324.6" y="134" width="169.5" height="10" fill="#C4452D"/><rect x="123" y="164" width="10" height="10" fill="#C4452D"/><text x="139" y="173" font-size="12" fill="#D9DCCB">JavaScript 8</text><rect x="494.2" y="134" width="127.1" height="10" fill="#D9DCCB"/><rect x="255" y="164" width="10" height="10" fill="#D9DCCB"/><text x="271" y="173" font-size="12" fill="#D9DCCB">CSS 6</text><rect x="621.3" y="134" width="63.6" height="10" fill="#7C846B"/><rect x="336" y="164" width="10" height="10" fill="#7C846B"/><text x="352" y="173" font-size="12" fill="#D9DCCB">Python 3</text><rect x="684.9" y="134" width="42.4" height="10" fill="#3E4A1E"/><rect x="439" y="164" width="10" height="10" fill="#3E4A1E"/><text x="455" y="173" font-size="12" fill="#D9DCCB">C 2</text></svg>