<svg xmlns="http://www.w3.org/2000/svg" width="840" height="214" viewBox="0 0 840 214" font-family="'SFMono-Regular','Cascadia Mono',Consolas,'Courier New',monospace"><rect width="840" height="214" rx="8" fill="#F6F7F1" stroke="#C9CDBB"/><text x="28" y="44" font-size="14" fill="#66705A">Languages</text><rect x="140" y="25" width="72" height="28" rx="4" fill="#ECEEE6" stroke="#C9CDBB"/><text x="151" y="44" font-size="13" fill="#1C2016">Python</text><rect x="222" y="25" width="106" height="28" rx="4" fill="#ECEEE6" stroke="#C9CDBB"/><text x="233" y="44" font-size="13" fill="#1C2016">JavaScript</text><rect x="338" y="25" width="55" height="28" rx="4" fill="#ECEEE6" stroke="#C9CDBB"/><text x="349" y="44" font-size="13" fill="#1C2016">HTML</text><rect x="403" y="25" width="47" height="28" rx="4" fill="#ECEEE6" stroke="#C9CDBB"/><text x="414" y="44" font-size="13" fill="#1C2016">CSS</text><rect x="460" y="25" width="55" height="28" rx="4" fill="#ECEEE6" stroke="#C9CDBB"/><text x="471" y="44" font-size="13" fill="#1C2016">Java</text><rect x="525" y="25" width="30" height="28" rx="4" fill="#ECEEE6" stroke="#C9CDBB"/><text x="536" y="44" font-size="13" fill="#1C2016">C</text><text x="28" y="90" font-size="14" fill="#66705A">Frameworks</text><rect x="140" y="71" width="80" height="28" rx="4" fill="#ECEEE6" stroke="#C9CDBB"/><text x="151" y="90" font-size="13" fill="#1C2016">Next.js</text><rect x="230" y="71" width="80" height="28" rx="4" fill="#ECEEE6" stroke="#C9CDBB"/><text x="241" y="90" font-size="13" fill="#1C2016">Node.js</text><rect x="320" y="71" width="80" height="28" rx="4" fill="#ECEEE6" stroke="#C9CDBB"/><text x="331" y="90" font-size="13" fill="#1C2016">Express</text><text x="28" y="136" font-size="14" fill="#66705A">Databases</text><rect x="140" y="117" width="80" height="28" rx="4" fill="#ECEEE6" stroke="#C9CDBB"/><text x="151" y="136" font-size="13" fill="#1C2016">MongoDB</text><rect x="230" y="117" width="106" height="28" rx="4" fill="#ECEEE6" stroke="#C9CDBB"/><text x="241" y="136" font-size="13" fill="#1C2016">PostgreSQL</text><rect x="346" y="117" width="89" height="28" rx="4" fill="#ECEEE6" stroke="#C9CDBB"/><text x="357" y="136" font-size="13" fill="#1C2016">Firebase</text><text x="28" y="182" font-size="14" fill="#66705A">Tools</text><rect x="140" y="163" width="47" height="28" rx="4" fill="#ECEEE6" stroke="#C9CDBB"/><text x="151" y="182" font-size="13" fill="#1C2016">AWS</text><rect x="197" y="163" width="64" height="28" rx="4" fill="#ECEEE6" stroke="#C9CDBB"/><text x="208" y="182" font-size="13" fill="#1C2016">Linux</text><rect x="271" y="163" width="47" height="28" rx="4" fill="#ECEEE6" stroke="#C9CDBB"/><text x="282" y="182" font-size="13" fill="#1C2016">Git</text></svg>